<svg width="216" height="42" viewBox="0 0 216 42" fill="none" xmlns="http://www.w3.org/2000/svg">
<g clip-path="url(#clip0_646_119)">
<path d="M51.17 0.139999H50.29V14.87H51.17V0.139999Z" fill="#001489"/>
<path d="M54.21 4.35H55.06V6.2C55.06 6.69 54.98 7.06 54.98 7.06H55.02C55.37 6.07 56.79 4.09 59.34 4.09C61.89 4.09 62.7 5.71 62.7 8.19V14.86H61.85V8.5C61.85 6.67 61.62 4.95 59.34 4.95C57.42 4.95 55.73 6.34 55.23 8.3C55.11 8.74 55.06 9.23 55.06 9.73V14.87H54.21V4.35Z" fill="#001489"/>
<path d="M64.84 12.94C64.84 12.94 65.98 14.27 68 14.27C69.24 14.27 70.34 13.6 70.34 12.29C70.34 9.62 64.74 10.38 64.74 6.95C64.74 5.08 66.27 4.11 68 4.11C70.08 4.11 71.01 5.25 71.01 5.25L70.5 5.97C70.5 5.97 69.67 4.98 67.93 4.98C66.77 4.98 65.63 5.53 65.63 6.9C65.63 9.63 71.23 8.81 71.23 12.31C71.23 13.99 69.85 15.15 67.97 15.15C65.5 15.15 64.28 13.64 64.28 13.64L64.83 12.97L64.84 12.94Z" fill="#001489"/>
<path d="M77.49 14.27C79.49 14.27 81.12 12.56 81.12 9.62C81.12 6.68 79.65 4.97 77.58 4.97C75.71 4.97 73.95 6.34 73.95 9.64C73.95 11.98 75.21 14.27 77.49 14.27ZM73.11 4.35H73.97V5.61C73.97 6.1 73.91 6.46 73.91 6.46H73.95C73.95 6.46 74.79 4.1 77.62 4.1C80.45 4.1 82.02 6.36 82.02 9.61C82.02 12.86 80.13 15.12 77.5 15.12C74.87 15.12 73.94 12.74 73.94 12.74H73.9C73.9 12.74 73.98 13.12 73.98 13.67V19.08H73.12V4.35H73.11Z" fill="#001489"/>
<path d="M84.1 14.88H84.96V4.35H84.1V14.87V14.88ZM84.02 1.68H85.04V0.139999H84.02V1.68Z" fill="#001489"/>
<path d="M87.62 4.35H88.47V6.35C88.47 6.83 88.39 7.21 88.39 7.21H88.43C88.94 5.59 90.08 4.27 91.69 4.27C91.99 4.27 92.28 4.33 92.28 4.33V5.21C92.28 5.21 92.04 5.17 91.81 5.17C90.22 5.17 89.22 6.56 88.78 8.11C88.56 8.85 88.47 9.63 88.47 10.32V14.86H87.62V4.35Z" fill="#001489"/>
<path d="M100.69 8.65C100.59 6.08 99.1 4.93 97.41 4.93C95.54 4.93 93.8 6.19 93.44 8.65H100.69ZM97.43 4.1C100.2 4.1 101.58 6.35 101.58 8.9C101.58 9.13 101.54 9.47 101.54 9.47H93.37C93.37 12.52 95.37 14.27 97.73 14.27C99.68 14.27 100.89 12.94 100.89 12.94L101.36 13.68C101.36 13.68 99.93 15.13 97.74 15.13C94.87 15.13 92.48 12.98 92.48 9.64C92.48 6.08 94.82 4.1 97.43 4.1Z" fill="#001489"/>
<path d="M107.44 14.27C109.31 14.27 111.06 12.9 111.06 9.6C111.06 7.26 109.9 4.97 107.52 4.97C105.53 4.97 103.9 6.68 103.9 9.62C103.9 12.56 105.37 14.27 107.44 14.27ZM107.56 4.1C110.13 4.1 111.08 6.48 111.08 6.48H111.12C111.12 6.48 111.04 6.1 111.04 5.62V0.139999H111.9V14.87H111.04V13.54C111.04 13.05 111.12 12.74 111.12 12.74H111.08C111.08 12.74 110.2 15.12 107.39 15.12C104.58 15.12 102.99 12.87 102.99 9.61C102.99 6.35 104.88 4.09 107.55 4.09" fill="#001489"/>
<path d="M124.69 14.27C126.69 14.27 128.32 12.57 128.32 9.62C128.32 6.67 126.85 4.97 124.78 4.97C122.91 4.97 121.15 6.34 121.15 9.64C121.15 11.97 122.31 14.27 124.69 14.27ZM120.31 0.139999H121.16V5.61C121.16 6.1 121.08 6.47 121.08 6.47H121.12C121.12 6.47 122 4.09 124.81 4.09C127.62 4.09 129.21 6.35 129.21 9.6C129.21 12.85 127.32 15.12 124.65 15.12C121.98 15.12 121.13 12.74 121.13 12.74H121.09C121.09 12.74 121.17 13.12 121.17 13.67V14.87H120.32V0.139999H120.31Z" fill="#001489"/>
<path d="M129.73 17.95C129.73 17.95 130.3 18.46 130.99 18.46C131.97 18.46 132.58 17.55 132.99 16.57L133.72 14.82L129.5 4.36H130.42L133.78 12.76C133.98 13.26 134.15 13.75 134.15 13.75H134.19C134.19 13.75 134.33 13.27 134.54 12.76L137.9 4.36H138.82L133.58 17.34C133.13 18.44 132.28 19.3 130.99 19.3C130.01 19.3 129.34 18.71 129.34 18.71L129.73 17.95Z" fill="#001489"/>
<path d="M149.93 13.38C151.56 13.38 152.9 11.99 152.9 9.57C152.9 7.15 151.7 5.76 149.99 5.76C148.44 5.76 147.02 6.88 147.02 9.59C147.02 11.48 148.04 13.38 149.93 13.38ZM145.11 4.23H146.92V5.14C146.92 5.56 146.88 5.92 146.88 5.92H146.92C146.92 5.92 147.8 3.99 150.38 3.99C153.15 3.99 154.9 6.26 154.9 9.56C154.9 12.86 152.92 15.14 150.23 15.14C147.97 15.14 147.07 13.39 147.07 13.39H147.03C147.03 13.39 147.07 13.77 147.07 14.32V19.1H145.09V4.23H145.11Z" fill="#001489"/>
<path d="M159.64 13.49C161.31 13.49 162.39 11.68 162.39 10.1V9.77H161.88C160.39 9.77 157.71 9.87 157.71 11.79C157.71 12.65 158.36 13.49 159.65 13.49M161.92 8.23H162.37V8.04C162.37 6.29 161.41 5.7 160.11 5.7C158.52 5.7 157.24 6.73 157.24 6.73L156.42 5.24C156.42 5.24 157.91 3.98 160.27 3.98C162.88 3.98 164.34 5.45 164.34 8.15V14.88H162.51V13.87C162.51 13.38 162.55 13.03 162.55 13.03H162.51C162.51 13.03 161.68 15.14 159.21 15.14C157.44 15.14 155.7 14.02 155.7 11.9C155.7 8.39 160.18 8.24 161.92 8.24" fill="#001489"/>
<path d="M166.69 6.02H165.35V4.38H166.75V1.3H168.66V4.37H171.14V6.01H168.66V10.75C168.66 12.87 170.11 13.15 170.86 13.15C171.14 13.15 171.33 13.11 171.33 13.11V14.92C171.33 14.92 171.04 14.96 170.64 14.96C169.32 14.96 166.69 14.54 166.69 10.98V6.01V6.02Z" fill="#001489"/>
<path d="M172.54 4.23H174.52V14.88H172.54V4.23ZM172.52 0.0199966H174.51V2.1H172.52V0.0199966Z" fill="#001489"/>
<path d="M183.72 8.30999C183.66 6.47999 182.56 5.59999 181.23 5.59999C179.72 5.59999 178.5 6.56999 178.22 8.30999H183.72ZM181.28 3.97999C184.19 3.97999 185.74 6.20999 185.74 8.96999C185.74 9.23999 185.68 9.84999 185.68 9.84999H178.16C178.26 12.18 179.87 13.36 181.7 13.36C183.53 13.36 184.76 12.12 184.76 12.12L185.57 13.61C185.57 13.61 184.04 15.13 181.58 15.13C178.34 15.13 176.12 12.71 176.12 9.54999C176.12 6.15999 178.34 3.96999 181.27 3.96999" fill="#001489"/>
<path d="M187.41 4.23H189.33V5.64C189.33 6.06 189.29 6.42 189.29 6.42H189.33C189.73 5.49 190.96 3.98 193.2 3.98C195.62 3.98 196.74 5.35 196.74 8.06V14.88H194.76V8.52C194.76 7.03 194.45 5.85 192.8 5.85C191.15 5.85 189.97 6.92 189.54 8.46C189.42 8.88 189.38 9.37 189.38 9.89V14.88H187.41V4.23Z" fill="#001489"/>
<path d="M199.09 6.02H197.75V4.38H199.15V1.3H201.06V4.37H203.55V6.01H201.06V10.75C201.06 12.87 202.51 13.15 203.26 13.15C203.54 13.15 203.73 13.11 203.73 13.11V14.92C203.73 14.92 203.44 14.96 203.04 14.96C201.72 14.96 199.09 14.54 199.09 10.98V6.01V6.02Z" fill="#001489"/>
<path d="M205.45 12.12C205.45 12.12 206.61 13.36 208.4 13.36C209.26 13.36 210.11 12.9 210.11 12.03C210.11 10.07 204.81 10.47 204.81 6.99999C204.81 5.05999 206.48 3.96999 208.54 3.96999C210.8 3.96999 211.86 5.14999 211.86 5.14999L211.06 6.68999C211.06 6.68999 210.14 5.73999 208.51 5.73999C207.66 5.73999 206.82 6.11999 206.82 7.04999C206.82 8.96999 212.12 8.53999 212.12 12.04C212.12 13.81 210.65 15.14 208.39 15.14C205.86 15.14 204.48 13.58 204.48 13.58L205.44 12.13L205.45 12.12Z" fill="#001489"/>
<path d="M215.99 12.71H213.91V14.88H215.99V12.71Z" fill="#001489"/>
<path d="M54.63 36.36C58.42 36.36 60.97 34.06 60.97 29.83C60.97 25.6 58.42 23.31 54.63 23.31H51.17V36.36H54.63ZM50.29 22.47H54.77C59.01 22.47 61.88 25.16 61.88 29.84C61.88 34.52 59.01 37.21 54.77 37.21H50.29V22.48V22.47Z" fill="#001489"/>
<path d="M64.26 26.68H65.12V28.68C65.12 29.16 65.04 29.54 65.04 29.54H65.08C65.59 27.92 66.73 26.6 68.34 26.6C68.64 26.6 68.93 26.66 68.93 26.66V27.55C68.93 27.55 68.69 27.51 68.46 27.51C66.87 27.51 65.87 28.9 65.43 30.46C65.2 31.2 65.13 31.98 65.13 32.67V37.22H64.27V26.69L64.26 26.68Z" fill="#001489"/>
<path d="M70.29 37.21H71.14V26.68H70.29V37.21ZM70.21 24.01H71.23V22.47H70.21V24.01Z" fill="#001489"/>
<path d="M72.45 26.68H73.37L76.51 34.93C76.69 35.43 76.86 36.06 76.86 36.06H76.9C76.9 36.06 77.06 35.43 77.25 34.93L80.39 26.68H81.29L77.3 37.21H76.49L72.48 26.68H72.45Z" fill="#001489"/>
<path d="M89.76 30.98C89.66 28.41 88.17 27.26 86.48 27.26C84.61 27.26 82.87 28.52 82.51 30.98H89.76ZM86.5 26.43C89.27 26.43 90.65 28.68 90.65 31.23C90.65 31.46 90.61 31.8 90.61 31.8H82.44C82.44 34.85 84.44 36.6 86.8 36.6C88.75 36.6 89.96 35.27 89.96 35.27L90.43 36C90.43 36 89 37.46 86.81 37.46C83.94 37.46 81.55 35.31 81.55 31.96C81.55 28.4 83.89 26.42 86.5 26.42" fill="#001489"/>
<path d="M92.7 26.68H93.56V28.53C93.56 29.02 93.48 29.39 93.48 29.39H93.52C93.87 28.4 95.29 26.42 97.84 26.42C100.39 26.42 101.2 28.04 101.2 30.53V37.2H100.35V30.84C100.35 29.01 100.12 27.28 97.84 27.28C95.92 27.28 94.24 28.67 93.72 30.63C93.6 31.07 93.56 31.55 93.56 32.06V37.19H92.7V26.66V26.68Z" fill="#001489"/>
<path d="M113.84 36.6C115.84 36.6 117.46 34.9 117.46 31.95C117.46 29 116 27.3 113.92 27.3C112.05 27.3 110.3 28.67 110.3 31.97C110.3 34.31 111.46 36.6 113.84 36.6ZM109.46 22.47H110.32V27.94C110.32 28.43 110.24 28.8 110.24 28.8H110.28C110.28 28.8 111.16 26.42 113.97 26.42C116.78 26.42 118.37 28.67 118.37 31.93C118.37 35.19 116.48 37.45 113.81 37.45C111.14 37.45 110.29 35.07 110.29 35.07H110.25C110.25 35.07 110.33 35.45 110.33 36V37.2H109.47V22.47H109.46Z" fill="#001489"/>
<path d="M118.87 40.28C118.87 40.28 119.44 40.79 120.13 40.79C121.11 40.79 121.72 39.88 122.13 38.89L122.86 37.15L118.64 26.69H119.56L122.92 35.09C123.12 35.59 123.29 36.08 123.29 36.08H123.33C123.33 36.08 123.47 35.59 123.68 35.09L127.04 26.69H127.96L122.72 39.68C122.27 40.78 121.42 41.64 120.13 41.64C119.16 41.64 118.48 41.05 118.48 41.05L118.87 40.29V40.28Z" fill="#001489"/>
<path d="M134.38 34.45C134.38 34.45 135.54 35.69 137.33 35.69C138.19 35.69 139.04 35.23 139.04 34.36C139.04 32.4 133.75 32.8 133.75 29.33C133.75 27.4 135.42 26.3 137.48 26.3C139.74 26.3 140.8 27.48 140.8 27.48L140.01 29.02C140.01 29.02 139.1 28.07 137.46 28.07C136.6 28.07 135.77 28.45 135.77 29.38C135.77 31.3 141.07 30.88 141.07 34.37C141.07 36.14 139.6 37.47 137.34 37.47C134.81 37.47 133.43 35.91 133.43 35.91L134.39 34.46L134.38 34.45Z" fill="#001489"/>
<path d="M147.3 26.31C149.89 26.31 151.17 27.87 151.17 27.87L150.23 29.3C150.23 29.3 149.13 28.08 147.38 28.08C145.31 28.08 143.8 29.68 143.8 31.87C143.8 34.06 145.31 35.7 147.45 35.7C149.36 35.7 150.63 34.27 150.63 34.27L151.42 35.76C151.42 35.76 149.99 37.47 147.31 37.47C144.07 37.47 141.79 35.09 141.79 31.89C141.79 28.69 144.07 26.31 147.31 26.31" fill="#001489"/>
<path d="M152.69 26.56H154.67V37.21H152.69V26.56ZM152.67 22.35H154.66V24.43H152.67V22.35Z" fill="#001489"/>
<path d="M163.87 30.64C163.81 28.81 162.71 27.93 161.38 27.93C159.87 27.93 158.65 28.9 158.37 30.64H163.87ZM161.43 26.31C164.35 26.31 165.89 28.54 165.89 31.3C165.89 31.57 165.83 32.18 165.83 32.18H158.31C158.41 34.51 160.02 35.69 161.85 35.69C163.68 35.69 164.91 34.45 164.91 34.45L165.73 35.94C165.73 35.94 164.2 37.46 161.74 37.46C158.5 37.46 156.28 35.04 156.28 31.88C156.28 28.49 158.5 26.3 161.43 26.3" fill="#001489"/>
<path d="M167.56 26.56H169.47V27.97C169.47 28.39 169.43 28.75 169.43 28.75H169.47C169.88 27.83 171.1 26.31 173.34 26.31C175.77 26.31 176.88 27.68 176.88 30.39V37.21H174.9V30.85C174.9 29.35 174.59 28.18 172.95 28.18C171.31 28.18 170.12 29.25 169.69 30.79C169.57 31.21 169.53 31.7 169.53 32.22V37.21H167.55V26.56H167.56Z" fill="#001489"/>
<path d="M183.89 26.31C186.48 26.31 187.76 27.87 187.76 27.87L186.82 29.3C186.82 29.3 185.72 28.08 183.97 28.08C181.9 28.08 180.39 29.68 180.39 31.87C180.39 34.06 181.9 35.7 184.03 35.7C185.95 35.7 187.21 34.27 187.21 34.27L188 35.76C188 35.76 186.57 37.47 183.89 37.47C180.65 37.47 178.37 35.09 178.37 31.89C178.37 28.69 180.65 26.31 183.89 26.31Z" fill="#001489"/>
<path d="M196.06 30.64C196 28.81 194.9 27.93 193.58 27.93C192.07 27.93 190.85 28.9 190.57 30.64H196.07H196.06ZM193.61 26.31C196.52 26.31 198.07 28.54 198.07 31.3C198.07 31.57 198.01 32.18 198.01 32.18H190.49C190.59 34.51 192.2 35.69 194.03 35.69C195.86 35.69 197.09 34.45 197.09 34.45L197.91 35.94C197.91 35.94 196.38 37.46 193.92 37.46C190.68 37.46 188.46 35.04 188.46 31.88C188.46 28.49 190.68 26.3 193.61 26.3" fill="#001489"/>
<path d="M201.79 35.04H199.71V37.21H201.79V35.04Z" fill="#001489"/>
<path d="M21.51 0C29.59 1.25 35.98 7.63 37.23 15.72V0H21.51Z" fill="#001489"/>
<path d="M15.72 0H0V15.72C1.25 7.63 7.63 1.25 15.72 0Z" fill="#001489"/>
<path d="M0 21.51V37.23H15.72C7.63 35.98 1.25 29.59 0 21.51Z" fill="#001489"/>
<path d="M21.51 37.23H37.23V21.51C35.98 29.59 29.6 35.98 21.51 37.23Z" fill="#001489"/>
<path d="M27.36 17.62V14.96H21.51V22.27H27.36V19.61H24.17V17.62H27.36Z" fill="#001489"/>
<path d="M32.88 19.61H30.82V17.62H32.88V19.61ZM35.34 14.96H30.82V10.84H28.16V22.27H35.34V14.96Z" fill="#001489"/>
<path d="M20.62 14.96H18.74L18.73 0H18.5V14.96H17.96V19.61H16.04V14.96H13.58V22.27H18.5V37.23H18.74V22.27H20.62V14.96Z" fill="#001489"/>
</g>
<defs>
<clipPath id="clip0_646_119">
<rect width="215.98" height="41.62" fill="white"/>
</clipPath>
</defs>
</svg>
