<?xml version="1.0" encoding="utf-8"?>
<!-- Generator: Adobe Illustrator 24.0.0, SVG Export Plug-In . SVG Version: 6.00 Build 0)  -->
<svg version="1.1" id="Livello_1" xmlns="http://www.w3.org/2000/svg" xmlns:xlink="http://www.w3.org/1999/xlink" x="0px" y="0px"
	 viewBox="0 0 595.2755737 130.3937073" style="enable-background:new 0 0 595.2755737 130.3937073;" xml:space="preserve">
<style type="text/css">
	.st0{fill:#CF1139;}
	.st1{fill:none;stroke:#020203;stroke-width:0.672;}
	.st2{fill:#020203;}
	.st3{fill:#0A69B3;}
</style>
<g>
	<path class="st0" d="M238.8157349,42.2485619v11.280056h-2.6725464c-1.4316711-3.6125107-4.3037415-9.2033615-8.804184-9.2033615
		c-2.6725464,0-5.0471344,1.8800125-5.0471344,12.5671349c0,14.545475,2.7737274,16.5238228,6.3341827,16.5238228
		c5.8858948,0,7.9134216-5.0933609,8.2633972-10.2908745h2.866272c0,8.9575157-5.4896545,13.3596382-14.1955109,13.3596382
		c-10.1925507,0-18.406723-5.9379425-18.406723-17.2179947c0-9.3016891,6.3312683-18.0133591,17.0184174-18.0133591
		c6.4325104,0,9.0037689,3.0716324,9.9958344,3.0716324c0.6912689,0,0.9862976-1.0875092,1.7787933-2.0766945H238.8157349z"/>
	<path class="st0" d="M256.2601624,49.5976639h0.1011963l5.2582703,14.0248566H251.580368L256.2601624,49.5976639z
		 M254.4524689,75.8888474v-2.7708206c-3.6646118,0-4.8475494-0.9862976-4.8475494-2.7216797
		c0-1.1858673,0.592926-2.52211,0.8879547-3.7050629h12.2778778c0.6912537,1.9783478,1.4808655,3.9537964,1.4808655,4.8475189
		c0,0.8879395-0.6912537,1.5792236-4.4020996,1.5792236v2.7708206h21.3684692v-2.7708206
		c-3.0658569,0-4.5525208-1.3825455-5.5908508-4.2025528l-10.1405029-27.0634499h-9.602478l-10.0392609,27.8067665
		c-0.6449738,1.7787933-2.4757996,3.1641998-5.8424683,3.4592361v2.7708206H254.4524689z"/>
	<path class="st0" d="M299.8410645,46.407444c0-1.5387077,0.8358765-1.7700996,1.4750977-1.781662
		c0.0173645-0.0058022,2.0737915-0.0058022,2.0940552-0.0058022c2.2386475,0.0058022,3.1150208,1.4837608,3.1150208,5.8887711
		c0,4.997921-1.0701599,5.7759705-4.5467529,5.7904243h-2.1374207V46.407444z M283.0222473,41.8520241v2.7679558
		c4.3066711,0,5.0962524,0.8937416,5.0962524,3.1699829v22.1638565c0,2.2762604-0.7895813,3.1642075-5.0962524,3.1642075v2.7708435
		h20.5296631v-2.7708435c-2.9212036,0-3.7108459-0.8879471-3.7108459-3.1642075V59.0700188h2.1461182
		c3.3175049,0.0289268,4.0405579,1.3507195,4.0405579,7.1729622c0,6.1837845,2.5250244,10.2417068,9.4549866,10.2417068
		c3.1150208,0,5.5880127-0.9429092,7.2713318-2.6696243c1.6804199-1.7324982,2.5712585-4.2546005,2.4237671-7.323349h-2.7737427
		c0,1.781662-0.4945984,3.5604324-1.6283875,3.5604324c-1.5358276,0-1.5358276-2.6696014-2.9704285-5.9870987
		c-1.0383301-2.4237595-4.1070862-6.2329483-11.1296387-6.3804436v-0.0983505
		c5.4433594,0,13.9959412-0.9428864,13.9959412-8.0637932c0-5.6400146-5.7846375-7.6704369-13.4059143-7.6704369H283.0222473z"/>
	<path class="st0" d="M358.8961792,75.8888474h-32.3564148v-2.7708206c4.3529663,0,5.1425476-0.8879623,5.1425476-3.1642075
		V47.7899628c0-2.2762642-0.7895813-3.1699829-5.0441589-3.1699829v-2.7679558h22.1088867v2.7679558
		c-4.5496216,0-5.3392639,0.8937187-5.3392639,3.1699829v22.1638565c0,2.0766678,0.6912231,3.1642075,3.1150208,3.1642075h2.1114197
		c3.0976257-0.0578613,6.7101135-3.8091965,7.9335938-10.2880058h2.6233521L358.8961792,75.8888474z"/>
	<path class="st0" d="M381.8785095,73.7123642h-1.411377h-1.385437c-2.9067993-0.0462723-4.3558655-4.7029114-4.3558655-14.8404846
		c0-10.1144485,1.4403381-14.7710838,4.3182678-14.8433762h1.4230347h1.411377
		c2.8894958,0.0636177,4.329834,4.7289276,4.329834,14.8433762
		C386.2083435,69.0094528,384.7680054,73.6516418,381.8785095,73.7123642 M380.4671326,41.2547493
		c-10.3400879,0-18.8493347,6.8837357-18.8493347,17.6171303s8.5092468,17.6113281,18.8493347,17.6113281
		c10.334259,0,18.846344-6.8779297,18.846344-17.6113281S390.8013916,41.2547493,380.4671326,41.2547493"/>
	<path class="st0" d="M446.8588867,75.8888474h-34.2393188v-2.7708206c4.4541931,0,5.2437439-0.8879623,5.2437439-3.1642075
		V47.7899628c0-2.2762642-0.7895508-3.1699829-5.0991516-3.1699829v-2.7679558h33.6492615l0.1966553,11.7746353h-2.5711975
		c-1.2379456-3.4621048-3.710907-9.0066795-8.2633667-9.0066795h-2.134552
		c-2.117157,0.0173416-3.372467,0.4107018-4.0550537,1.0904007v10.9850426h2.1200867
		c3.8381042-0.0404892,4.870636-2.3977394,5.6052856-5.541687h2.4729614v14.4471245h-2.4729614
		c-0.8358765-4.0318832-1.6254272-5.8164368-5.6139221-5.8395844h-2.1114502v11.2974014
		c0,1.4866486,1.585022,2.0304184,3.7629089,2.0304184c0.0289612,0,2.0940247,0.0289307,2.1200562,0.0289307
		c4.2141418-0.0520782,7.8353577-3.8034134,9.0616455-10.2880058h2.6233826L446.8588867,75.8888474z"/>
	<path class="st0" d="M511.7660217,59.3658867h2.0968323c4.0579834,0.0144768,5.2814331,1.026783,5.2814331,7.5692177
		c0,5.1309586-1.446167,6.1606293-2.961792,6.1808701h-2.0881958c-1.4345703,0-2.3225403-0.4888-2.3225403-2.3717041
		L511.7660217,59.3658867z M495.2450562,44.6208382c4.008728,0,4.8012695,0.8937225,4.8012695,3.1670952v22.166748
		c0,2.2762375-0.7925415,3.161293-4.9459229,3.161293v2.7737503h27.2109985c6.6291504,0,10.5858765-4.1533813,10.5858765-9.301712
		c0-5.4433327-4.5524902-8.4108582-12.3675537-8.4108582v-0.245842c7.2221069-0.1504059,11.3812866-2.6233521,11.3812866-8.0609055
		c0-3.563343-2.1807861-5.9871025-5.3942261-7.1266899c-3.5141602-1.1858406-11.6300049-0.890831-15.5374756-0.890831h-15.7342529
		V44.6208382z M511.7660217,46.8016434c0-1.9812317,0.9428406-2.1808052,1.9812317-2.1808052
		c0.0375977,0,2.1113281,0.0057831,2.1431885,0.0057831c1.446167,0.0491867,2.8575439,1.1251106,2.8575439,4.5988007v3.5604324
		c0,3.1323814-0.9660034,3.794735-4.8272095,3.8091888h-2.1547546V46.8016434z"/>
	<path class="st0" d="M550.4608765,49.5976639h0.1012573l5.2581787,14.0248566h-10.0392456L550.4608765,49.5976639z
		 M548.6560669,75.8888474v-2.7708206c-3.6617432,0-4.8533325-0.9862976-4.8533325-2.7216797
		c0-1.1858673,0.5928955-2.52211,0.8936768-3.7050629h12.2750854c0.6912231,1.9783478,1.4836426,3.9537964,1.4836426,4.8475189
		c0,0.8879395-0.6911621,1.5792236-4.4049072,1.5792236v2.7708206h21.3684692v-2.7708206
		c-3.0658569,0-4.5496216-1.3825455-5.5908813-4.2025528l-10.1404419-27.0634499h-9.5996094l-10.0393066,27.8067665
		c-0.6478271,1.7787933-2.4786987,3.1641998-5.8453369,3.4592361v2.7708206H548.6560669z"/>
	<path class="st0" d="M467.8338623,46.407444c0-1.5387077,0.835907-1.7700996,1.4693909-1.781662
		c0.0259399-0.0058022,2.0766296-0.0058022,2.0968628-0.0058022c2.2416077,0.0058022,3.1179199,1.4837608,3.1179199,5.8887711
		c0,4.997921-1.0701294,5.7759705-4.5466919,5.7904243h-2.1374817V46.407444z M451.0151062,41.8520241v2.7679558
		c4.3066101,0,5.0933533,0.8937416,5.0933533,3.1699829v22.1638565c0,2.2762604-0.7867432,3.1642075-5.0933533,3.1642075v2.7708435
		h20.5296631v-2.7708435c-2.9212646,0-3.710907-0.8879471-3.710907-3.1642075V59.0700188h2.1490479
		c3.3145752,0.0289268,4.0376587,1.3507195,4.0376587,7.1729622c0,6.1837845,2.5221252,10.2417068,9.4521179,10.2417068
		c3.1150208,0,5.5879822-0.9429092,7.2713013-2.6696243c1.6833496-1.7324982,2.5741272-4.2546005,2.4237366-7.323349h-2.7707825
		c0,1.781662-0.497467,3.5604324-1.6284485,3.5604324c-1.5386658,0-1.5386658-2.6696014-2.9704285-5.9870987
		c-1.0411987-2.4237595-4.112854-6.2329483-11.1325378-6.3804436v-0.0983505c5.4404907,0,14.0017395-0.9428864,14.0017395-8.0637932
		c0-5.6400146-5.7903748-7.6704369-13.4087524-7.6704369H451.0151062z"/>
	<g>
		<path class="st0" d="M420.2090149,101.2903442c-0.1678772-0.0693741-0.3673706-0.1099777-0.5929871-0.1301041
			c-0.2227783-0.0088272-0.4830017-0.0174789-0.7779846-0.0174789h-0.9024353v2.591507h0.7635193
			c0.3963013,0,0.73172-0.0114746,0.9979248-0.0549011c0.2688599-0.0375977,0.4916382-0.1301041,0.6738281-0.2632065
			c0.1735535-0.1359329,0.3008118-0.2835159,0.3760376-0.4453964c0.0838318-0.162056,0.1214294-0.3760147,0.1214294-0.6507034
			c0-0.2459106-0.0490723-0.4483948-0.1473999-0.6247482C420.6196289,101.5246048,420.4490967,101.385849,420.2090149,101.2903442z"
			/>
		<path class="st0" d="M595.1165161,93.7732086h-2.9472046l-378.0059814,0.1735306
			c-12.3762207,0-20.2116394-3.8207092-24.0351715-17.2642441c-0.0326691-0.1131592-0.1324005-0.5963287-0.2635651-1.6512909
			c0.0033569-10.6195297,0.0098877-24.0439987,0.0098877-28.4338531c0-14.3081932,11.6444855-25.9498539,25.9528503-25.9498539
			h0.2919922h357.496521h0.4222412c8.9577026,0,16.4660034-6.3110619,18.1118164-14.9272957v70.1908493h3.0137939V10.3160677
			v-0.0144758V4.0080061c0-1.5937419-1.298584-2.8864946-2.8895264-2.8864946c-1.454834,0-2.6898193,1.0874447-2.8633423,2.5277791
			l-0.0145264,0.09268v0.0490761c-0.8068848,7.8989787-7.3984985,13.8455009-15.3582153,13.8455009h-0.4222412h-357.496521
			h-0.2919922c-15.9684906,0-28.9638062,12.9923153-28.9638062,28.960804c0,1.0846214-0.0173035,34.6471176-0.0231323,35.6941376
			c-0.0037079,0.541954,0.005661,1.0184174,0.0204773,1.4659271c-0.0014038,0.0227737-0.0058136,0.0529633-0.0068817,0.074852
			c-0.0086517,0.1763611-0.0231171,0.6971283-0.0231171,0.76651c0,15.9684906,12.7059784,28.9722748,29.1083832,28.9722748
			h0.2919769h357.9188232c7.9625244,0,14.5512695,5.946701,15.3582153,13.8455048v0.0492554l0.0144653,0.0896759
			c0.1765747,1.4433365,1.4085693,2.5279617,2.866394,2.5279617c1.5878906,0,2.8864746-1.2929382,2.8864746-2.8836746
			L595.1165161,93.7732086z M421.7303772,109.053215l-2.6349487-3.5544968h-1.1598206v3.5544968h-2.4989929v-9.7036743h4.1967163
			c0.5756836,0,1.0701294,0.0317764,1.4809265,0.0983276c0.4136353,0.0665512,0.8011169,0.205307,1.1626587,0.4194412
			c0.3645325,0.2197876,0.653717,0.5002975,0.8706665,0.8503647c0.2139587,0.3412323,0.3209229,0.7751541,0.3209229,1.2985764
			c0,0.7144318-0.1676941,1.3074036-0.497467,1.7556229c-0.3295898,0.4512177-0.8039246,0.8272324-1.4228516,1.1280441
			l3.242218,4.1532974H421.7303772z M444.7181702,101.225029h-4.5236511v1.6804199h4.199707v1.8742523h-4.199707v2.3976746
			h4.5236511v1.8770752h-7.0196533v-9.7036743h7.0196533V101.225029z M465.0141907,109.0539246l-0.679657-1.9667587h-3.5576782
			l-0.67099,1.9667587h-2.5422668l3.5864563-9.7038574h2.8778381l3.5836487,9.7038574H465.0141907z M489.413208,108.5008469
			c-0.4367371,0.1735306-1.0122375,0.3412399-1.7266846,0.5061188c-0.7144165,0.1707077-1.428833,0.2545624-2.1460876,0.2545624
			c-1.6486511,0-2.9415894-0.4482193-3.8757935-1.3506546c-0.9370422-0.8966141-1.3969116-2.1402893-1.3969116-3.7282104
			c0-1.5068817,0.4685059-2.7274323,1.4085693-3.650177c0.9456787-0.9283829,2.2589111-1.3912582,3.9421387-1.3912582
			c0.6392517,0,1.2466736,0.0609055,1.8221741,0.1737137c0.5785217,0.1128006,1.2177429,0.3412323,1.9291687,0.6854782v2.2732162
			h-0.2776794c-0.1242981-0.0953293-0.3008118-0.2197876-0.5350952-0.3903122
			c-0.2370605-0.1707077-0.4598694-0.309639-0.6796265-0.428093c-0.2487488-0.1389313-0.5465698-0.2545624-0.8821411-0.355896
			c-0.3384094-0.1039734-0.6941223-0.1504059-1.0701599-0.1504059c-0.4425659,0-0.8475342,0.0665512-1.2060547,0.1938324
			c-0.3587341,0.1359329-0.6826782,0.3325882-0.9718323,0.604454c-0.2718506,0.2603836-0.4888306,0.5929718-0.64505,0.9951172
			c-0.1618652,0.4047928-0.2370911,0.8704834-0.2370911,1.396904c0,1.0759735,0.2863464,1.9002075,0.8503723,2.4728775
			c0.5668335,0.5726776,1.411377,0.8590164,2.527771,0.8590164c0.0924988,0,0.1966553-0.0056534,0.3124695-0.0086517
			c0.1156311,0,0.2197876-0.0086517,0.3151245-0.0201263v-1.914856h-1.9378052v-1.8364792h4.4802246V108.5008469z
			 M510.490387,101.225029h-4.5236511v1.6804199h4.1968994v1.8742523h-4.1968994v2.3976746h4.5236511v1.8770752h-7.0196533
			v-9.7036743h7.0196533V101.225029z M533.2492065,109.054451h-2.4121094l-4.1359863-6.6609497v6.6609497h-2.2937012v-9.7036743
			h2.9906006l3.5546875,5.5590286v-5.5590286h2.2965088V109.054451z M555.1213379,101.2260895h-3.0284424v7.8295975h-2.4959717
			v-7.8295975h-3.0282593v-1.8770828h8.5526733V101.2260895z M575.0111694,108.3357849
			c-0.8156128,0.5958023-1.9176636,0.8966141-3.3087769,0.8966141c-0.8071289,0-1.5070801-0.0723801-2.1028442-0.208313
			c-0.5958252-0.144577-1.1598511-0.3239365-1.6832275-0.5408936v-2.3196487h0.2718506
			c0.5205688,0.4077911,1.1019287,0.7230835,1.7469482,0.9428635c0.6420898,0.2227859,1.2609863,0.3355942,1.8539429,0.3355942
			c0.1532593,0,0.3500977-0.0116577,0.5988159-0.0434265c0.2487183-0.0201263,0.4540405-0.0693817,0.6102905-0.1301117
			c0.1907959-0.0780258,0.3527222-0.1735306,0.4743042-0.29216c0.1243286-0.1156311,0.1850586-0.29216,0.1850586-0.5234222
			c0-0.2141342-0.0897217-0.3963165-0.2719116-0.5495453c-0.1793213-0.1562347-0.4453735-0.2690353-0.7896118-0.3558884
			c-0.3701782-0.0866776-0.7576904-0.1677094-1.1656494-0.2429123c-0.4047852-0.0752029-0.7894287-0.1735306-1.1481934-0.29216
			c-0.8185425-0.266037-1.4085083-0.6275787-1.7672729-1.0787964c-0.3585205-0.456871-0.5378418-1.0180664-0.5378418-1.6890717
			c0-0.9082642,0.4019165-1.6458206,1.2147217-2.2126694c0.8099365-0.5754929,1.8569336-0.8590088,3.1295776-0.8590088
			c0.6448364,0,1.2754517,0.06073,1.9030151,0.1851807c0.6190796,0.12146,1.1656494,0.2805176,1.6196899,0.4626999v2.2416153
			h-0.2660522c-0.3933105-0.3124619-0.8704834-0.5698471-1.4403076-0.7838058
			c-0.5726929-0.2111359-1.1539917-0.3124619-1.7498169-0.3124619c-0.2055054,0-0.416626,0.0116501-0.6219482,0.040596
			c-0.208313,0.0259552-0.4077759,0.0780334-0.6016235,0.1532364c-0.164856,0.0665512-0.3152466,0.1677017-0.4337158,0.3036346
			c-0.1244507,0.1272812-0.19104,0.2805099-0.19104,0.4453964c0,0.2545547,0.1013794,0.454216,0.2950439,0.5901489
			c0.199646,0.1387558,0.5726318,0.2602081,1.1193848,0.3788376c0.3557129,0.0693817,0.6999512,0.1417618,1.0297241,0.2139587
			c0.3295898,0.0695572,0.6796265,0.1648865,1.06427,0.2835159c0.7404175,0.2459106,1.289978,0.5784988,1.6456909,0.9979401
			c0.3587036,0.4192657,0.5352173,0.9659882,0.5352173,1.6311646
			C576.2288818,106.9618301,575.8239136,107.7369843,575.0111694,108.3357849z"/>
		<polygon class="st0" points="461.3785095,105.3082428 463.7299194,105.3082428 462.5557861,101.8780212 		"/>
	</g>
	<line class="st1" x1="174.4873352" y1="0.4493141" x2="174.4873352" y2="130.1901245"/>
	<path class="st2" d="M0,108.6140137c0.801196-0.0925598,1.6370808-0.1735458,2.5105672-0.2400665
		c0.8734422-0.0665207,1.8453016-0.1012268,2.9096646-0.1012268c3.5951433,0,6.3284073,0.8966217,8.2026167,2.6840744
		c1.8713398,1.7874527,2.8084221,4.4686279,2.8084221,8.0406494c0,3.5951538-0.9515581,6.238739-2.8518057,7.9336319
		c-1.9031601,1.6891174-4.726059,2.5365601-8.4716091,2.5365601c-0.9718151,0-1.8655589-0.0347137-2.6811864-0.0983429
		C1.6081294,129.3027802,0.801196,129.2217865,0,129.1263428V108.6140137z M4.1938996,125.8175278
		c0.1706195,0.0173569,0.3875346,0.0375977,0.656527,0.0549545c0.2660799,0.0202484,0.5900626,0.0289307,0.9689469,0.0289307
		c0.8734865,0,1.6891141-0.0983429,2.4382329-0.3008041c0.7519875-0.1966782,1.4027767-0.5639954,1.9551935-1.0961914
		c0.5524168-0.5321808,0.9891596-1.2465897,1.313098-2.1403122c0.3210697-0.8937302,0.4859076-2.0419846,0.4859076-3.4505386
		c0-1.3709717-0.1648378-2.5105362-0.4859076-3.4245148c-0.3239384-0.9110794-0.7606812-1.6341553-1.313098-2.1663513
		c-0.5524168-0.5292892-1.1829491-0.9081802-1.8973789-1.1279984c-0.7115173-0.2169266-1.4692864-0.326828-2.2675695-0.326828
		c-0.2660794,0-0.5726738,0.0057755-0.9255195,0.0144653c-0.35289,0.0115585-0.6623526,0.0346985-0.9284325,0.0722961V125.8175278z"
		/>
	<path class="st2" d="M23.6470222,108.6157455c0.4020538-0.0578537,0.7809391-0.0983429,1.1424789-0.1301651
		c0.3615398-0.0260239,0.7606812-0.0375977,1.1974239-0.0375977c0.3788853,0,0.7519875,0.0115738,1.1106606,0.0375977
		c0.3644085,0.0318222,0.7635498,0.0723114,1.2002926,0.1301651l6.4180412,20.5094376
		c-0.7808952,0.1156921-1.5415764,0.170639-2.2820015,0.170639c-0.7230797,0-1.4259453-0.0549469-2.1114235-0.170639
		l-1.1424351-4.1042099h-6.785408l-1.1713867,4.1042099c-0.6826096,0.1156921-1.3391361,0.170639-1.9667568,0.170639
		c-0.7057343,0-1.3969955-0.0549469-2.0853863-0.170639L23.6470222,108.6157455z M28.2140255,121.567543l-2.3688107-8.6162186
		l-2.481617,8.6162186H28.2140255z"/>
	<path class="st2" d="M40.4783173,119.6273804c-0.6479225-0.2458496-1.2263756-0.5177155-1.7411919-0.8127365
		c-0.5119438-0.2950211-0.9486885-0.6478806-1.3102303-1.0585938c-0.3615379-0.407814-0.6420937-0.8966141-0.8416634-1.4664078
		c-0.1995735-0.5697861-0.3008156-1.2552643-0.3008156-2.0564346c0-0.9660339,0.1677513-1.8221664,0.5003853-2.5625992
		c0.332634-0.7433319,0.8040657-1.3680649,1.4114723-1.8713303c0.6073608-0.5032654,1.3391342-0.8821564,2.1981468-1.1424713
		c0.8532295-0.2545166,1.8134804-0.3846741,2.8778458-0.3846741c0.9689445,0,1.8800316,0.0867691,2.7245674,0.2574158
		c0.8474464,0.1706467,1.7354088,0.4193878,2.6696243,0.7433319c-0.1157188,1.1019745-0.4193993,2.1865921-0.9139557,3.2509689
		c-0.2863808-0.1128082-0.5755882-0.2285004-0.8706169-0.3412933c-0.2949905-0.1156998-0.6102753-0.2111511-0.9399986-0.2863388
		c-0.3326302-0.0752029-0.7086029-0.1388321-1.1280022-0.1851196c-0.4193993-0.0462723-0.8937416-0.0723038-1.4259033-0.0723038
		c-0.3239365,0-0.6507874,0.0318146-0.9834213,0.0867691c-0.3325882,0.0578461-0.6334,0.1590805-0.8994827,0.3123779
		c-0.2661209,0.1532822-0.4859047,0.3759918-0.6565704,0.6710129c-0.1706619,0.2950211-0.2545166,0.6796951-0.2545166,1.156929
		c0,0.3788986,0.0665092,0.6970444,0.1966591,0.9544601c0.1359749,0.2545319,0.3152885,0.47435,0.543766,0.6536713
		c0.2256088,0.1822128,0.4830399,0.3355026,0.7693748,0.4569778c0.2834244,0.1272736,0.5726738,0.2429657,0.8560982,0.3586502
		l1.7122841,0.6594543c0.7201691,0.2805481,1.3796082,0.5755692,1.9667587,0.8792648
		c0.5900612,0.3065796,1.0904007,0.6796951,1.4982376,1.128006c0.4077911,0.4483032,0.7259483,0.9891663,0.9573364,1.6254807
		c0.2256126,0.6392059,0.3412857,1.423027,0.3412857,2.3543472c0,0.9689255-0.176403,1.8539886-0.5292931,2.6522598
		c-0.3499336,0.7982788-0.8590088,1.483757-1.524231,2.0535431c-0.6652222,0.5697937-1.4895439,1.0180969-2.4700508,1.3391418
		c-0.9776001,0.3239441-2.1056023,0.4888153-3.378231,0.4888153c-0.6276169,0-1.1887283-0.0202637-1.6833305-0.0578461
		c-0.4945602-0.0375977-0.9660339-0.1012268-1.4114265-0.1851196c-0.448307-0.0867615-0.890831-0.1966705-1.3275757-0.3297272
		c-0.4367447-0.1330414-0.8937416-0.2950134-1.3709564-0.483017c0.0578156-0.5524292,0.1648369-1.1279984,0.3152428-1.7267075
		c0.1532745-0.6016006,0.332634-1.2032089,0.543766-1.8134842c0.7982864,0.326828,1.5473595,0.5668945,2.2530937,0.725975
		c0.7028694,0.164856,1.4548569,0.245842,2.2531395,0.245842c1.1974258,0,2.1402893-0.2256012,2.8228989-0.6710129
		c0.6854782-0.4454193,1.0296745-1.128006,1.0296745-2.039093c0-0.459877-0.0839005-0.8358765-0.2458687-1.1424637
		c-0.1619682-0.3008041-0.3701897-0.5611115-0.624752-0.7693558c-0.2573853-0.2082443-0.5466347-0.3875656-0.8734398-0.5292892
		c-0.3210716-0.1417236-0.6537018-0.2805557-0.9949875-0.4107208L40.4783173,119.6273804z"/>
	<path class="st2" d="M52.1450882,108.6145859c0.7028236-0.112793,1.3969536-0.1677551,2.0824318-0.1677551
		s1.3883438,0.0549622,2.1114235,0.1677551v20.5123367c-0.7230797,0.1156921-1.4172516,0.1706543-2.0853844,0.1706543
		c-0.7028236,0-1.4056473-0.0549622-2.1084709-0.1706543V108.6145859z"/>
	<path class="st2" d="M64.0394592,112.1530533h-5.1049919c-0.1156731-0.5697861-0.1735306-1.1713867-0.1735306-1.7990189
		c0-0.5900345,0.0578575-1.1684952,0.1735306-1.7382889h14.4037895c0.1128006,0.5697937,0.1735306,1.1482544,0.1735306,1.7382889
		c0,0.6276321-0.06073,1.2292328-0.1735306,1.7990189h-5.1049423v16.9721298
		c-0.3413315,0.0404968-0.6854782,0.0694275-1.0268097,0.1012268c-0.3441467,0.0289307-0.6767807,0.0404968-1.0007172,0.0404968
		c-0.3210754,0-0.6681366-0.0115662-1.0383301-0.0260315c-0.3731461-0.0202332-0.749115-0.06073-1.1279984-0.1156921V112.1530533z"
		/>
	<path class="st2" d="M88.3138351,118.5141296c0.2284775-0.03759,0.4656525-0.0665207,0.714386-0.0838776
		c0.2458191-0.0202484,0.4945984-0.028923,0.7404251-0.028923c0.2487335,0,0.4945984,0.0086746,0.7433319,0.028923
		c0.2458267,0.0173569,0.4714355,0.0462875,0.6854782,0.0838776v10.0132141
		c-0.4020538,0.170639-0.8387909,0.318161-1.3130951,0.4425201c-0.4772568,0.1214752-0.9718628,0.2169342-1.4837646,0.2834473
		c-0.5148544,0.0694275-1.0296707,0.1214752-1.5387497,0.156189c-0.5148163,0.0404968-1.0007248,0.0578461-1.4577255,0.0578461
		c-1.5213623,0-2.8894043-0.2371674-4.1070862-0.7115173c-1.2176361-0.4772186-2.2415314-1.1684875-3.0803299-2.0680084
		c-0.8387527-0.9052887-1.4779816-2.0014725-1.9262848-3.2972412c-0.4453964-1.2928619-0.6710052-2.7563782-0.6710052-4.393425
		c0-1.6341705,0.2284775-3.1121368,0.6854782-4.4339294s1.1077499-2.446907,1.9552002-3.3811264
		c0.844574-0.9313278,1.8539963-1.6457367,3.0224686-2.151886c1.1714249-0.5061569,2.4671783-0.757782,3.8959503-0.757782
		c1.0817566,0,2.0217514,0.0723038,2.8229446,0.2140274c0.7982864,0.1446075,1.5213623,0.3384018,2.1663284,0.5871353
		c-0.0376053,0.4396362-0.1185837,0.8387756-0.2429504,1.2089996c-0.1243744,0.3702087-0.2689972,0.7664642-0.4396133,1.1829605
		c-0.5322037-0.1677628-1.1106644-0.318161-1.7267151-0.4541016c-0.6189728-0.133049-1.3912201-0.1966782-2.3254318-0.1966782
		c-1.006546,0-1.9262848,0.1793213-2.7535172,0.540863c-0.8242798,0.3586502-1.530014,0.8879395-2.1113815,1.5820999
		c-0.5813675,0.697052-1.0296783,1.5502853-1.3536148,2.5654907c-0.3210297,1.0180893-0.4859085,2.1837006-0.4859085,3.493927
		c0,1.350708,0.1677475,2.5163193,0.5003815,3.4968109s0.8040695,1.7961273,1.4114304,2.4526901
		c0.6074066,0.653656,1.3276138,1.1395645,2.154808,1.454834c0.8271942,0.3123703,1.7440567,0.4714508,2.7506104,0.4714508
		c0.6102753,0,1.1424332-0.0347061,1.5994339-0.1012268c0.4570007-0.0665359,0.8445358-0.147522,1.1685181-0.2400665V118.5141296z"
		/>
	<path class="st2" d="M95.645874,108.5859451c0.4193573-0.03759,0.7982407-0.0723038,1.1424408-0.112793
		c0.3412781-0.0376053,0.6796951-0.0694275,1.0123291-0.0983429c0.3297195-0.028923,0.6796951-0.0549545,1.0412369-0.0752029
		c0.3586273-0.0173569,0.7577667-0.0260315,1.1974182-0.0260315c0.9689026,0,1.9291611,0.0925598,2.8807602,0.2863388
		c0.9486465,0.1880112,1.7960968,0.5235138,2.5365601,0.9978561c0.7432938,0.4743347,1.3449173,1.1164246,1.8134842,1.9233932
		c0.4656525,0.809845,0.6970444,1.8308411,0.6970444,3.0658569c0,0.7433243-0.1243668,1.4201279-0.3673248,2.0304031
		c-0.2487335,0.6044922-0.5640259,1.148262-0.9429092,1.6254883c-0.3817978,0.4743423-0.8127594,0.8879395-1.2986679,1.2408066
		c-0.4859085,0.349968-0.954422,0.6392059-1.4143372,0.8647995l-0.3412857,0.1735458l5.9639587,8.645134
		c-0.5119476,0.0549622-1.0932693,0.0838776-1.7411499,0.0838776c-0.5119476,0-1.0268021-0.0289154-1.5387497-0.0838776
		l-6.5626678-9.4983749v-0.1185837l0.2285233-0.0549469c0.5119019-0.133049,1.0556641-0.3123779,1.625473-0.540863
		c0.57267-0.2285004,1.0990982-0.526413,1.5850067-0.8995132c0.4859009-0.370224,0.8879166-0.8185349,1.211853-1.342041
		c0.3210678-0.5206223,0.4830399-1.1540298,0.4830399-1.8944702c0-1.3709564-0.4020538-2.3890533-1.208992-3.0542831
		c-0.809845-0.6623459-1.897377-0.9978561-3.2683334-0.9978561c-0.3239365,0-0.6218338,0.0115738-0.8995209,0.0289154
		c-0.2747803,0.020256-0.5842361,0.0462875-0.9255219,0.0867767v18.2852402
		c-0.2111359,0.0173645-0.4425278,0.0376129-0.6999588,0.0549622c-0.2545166,0.0173645-0.5003815,0.0289154-0.7259903,0.0289154
		c-0.2284775,0-0.4742966-0.0057831-0.7404251-0.0144501c-0.2689896-0.0086823-0.5148163-0.0318146-0.7432938-0.0694275V108.5859451
		z"/>
	<path class="st2" d="M119.8068771,129.4690704c-1.4837646,0-2.767952-0.2631989-3.8525772-0.7867126
		c-1.081749-0.5234985-1.9812775-1.2552567-2.6956635-2.1952591c-0.7115173-0.9429016-1.246582-2.0564423-1.5965652-3.3522034
		c-0.3528442-1.2928619-0.5292892-2.7101059-0.5292892-4.2517166c0-1.5358124,0.176445-2.9530563,0.5292892-4.2488098
		c0.3499832-1.2928772,0.8850479-2.4093018,1.5965652-3.3493118c0.714386-0.942894,1.6139145-1.6804428,2.6956635-2.2126236
		c1.0846252-0.53508,2.3688126-0.8011703,3.8525772-0.8011703c1.4837189,0,2.7650375,0.2660904,3.8496552,0.8011703
		c1.0817108,0.5321808,1.9841461,1.2697296,2.6956177,2.2126236c0.7144318,0.9400101,1.2408142,2.0564346,1.5821381,3.3493118
		c0.3441544,1.2957535,0.5148087,2.7129974,0.5148087,4.2488098c0,1.5416107-0.1706543,2.9588547-0.5148087,4.2517166
		c-0.3413239,1.2957611-0.8677063,2.4093018-1.5821381,3.3522034c-0.7114716,0.9400024-1.6139069,1.6717606-2.6956177,2.1952591
		C122.5719147,129.2058716,121.290596,129.4690704,119.8068771,129.4690704 M119.8068771,126.9585342
		c0.9486465,0,1.7700958-0.1851044,2.4671402-0.5582047c0.6912613-0.370224,1.2667999-0.9052963,1.7238007-1.6110306
		c0.4570007-0.7028275,0.7982864-1.5502853,1.0296707-2.5394516c0.2256165-0.9891739,0.3412857-2.1085052,0.3412857-3.3666687
		c0-1.2350159-0.1156693-2.3514557-0.3412857-3.3492966c-0.2313843-0.9978561-0.57267-1.8452988-1.0296707-2.5423584
		c-0.4570007-0.6912537-1.0325394-1.2234497-1.7238007-1.59655c-0.6970444-0.370224-1.5184937-0.5524368-2.4671402-0.5524368
		c-0.9516068,0-1.7759247,0.1822128-2.467186,0.5524368c-0.6970444,0.3731003-1.2697144,0.9052963-1.7267151,1.59655
		c-0.456955,0.6970596-0.8011551,1.5445023-1.0267639,2.5423584c-0.2284775,0.9978409-0.3412781,2.1142807-0.3412781,3.3492966
		c0,1.2581635,0.1128006,2.3774948,0.3412781,3.3666687c0.2256088,0.9891663,0.569809,1.8366241,1.0267639,2.5394516
		c0.4570007,0.7057343,1.0296707,1.2408066,1.7267151,1.6110306
		C118.0309525,126.7734299,118.8552704,126.9585342,119.8068771,126.9585342"/>
	<path class="st2" d="M132.2157898,108.6145859c0.456955-0.0549469,0.9486542-0.0838776,1.4808502-0.0838776
		c0.5148163,0,0.9891663,0.0289307,1.4288177,0.0838776v11.6387024c0,1.180069,0.0722961,2.1894836,0.2256165,3.0253677
		c0.1532745,0.8358765,0.4020081,1.5155716,0.7432861,2.0390854c0.3413239,0.5235062,0.7954102,0.9081802,1.3536072,1.1540298
		c0.5611115,0.2487411,1.2523804,0.370224,2.0680084,0.370224c0.8185425,0,1.5040131-0.1214828,2.056427-0.370224
		c0.5495453-0.2458496,0.9949951-0.6305237,1.3391876-1.1540298c0.3412781-0.5235138,0.5900116-1.2032089,0.7432861-2.0390854
		c0.1504059-0.8358841,0.2256165-1.8452988,0.2256165-3.0253677v-11.6387024
		c0.4772491-0.0549469,0.9631653-0.0838776,1.4548492-0.0838776c0.5321655,0,1.0296783,0.0289307,1.4837646,0.0838776v12.1535416
		c0,1.3680649-0.1272888,2.5944061-0.3847046,3.6790237c-0.2573853,1.0817337-0.6738739,1.9985886-1.255249,2.7390289
		c-0.5784454,0.7404327-1.3362579,1.3073196-2.2675629,1.6948929c-0.9313507,0.3904724-2.0622711,0.5871429-3.3956146,0.5871429
		c-1.3304443,0-2.4613647-0.1966705-3.3926697-0.5871429c-0.9313354-0.3875732-1.6891022-0.9544601-2.2676086-1.6948929
		c-0.5813293-0.7404404-1.0007172-1.6572952-1.2552338-2.7390289c-0.257431-1.0846176-0.3846741-2.3109589-0.3846741-3.6790237
		V108.6145859z"/>
	<path class="st2" d="M151.354248,108.5862427c0.2863312-0.0376053,0.6247406-0.0723114,1.0151978-0.1128082
		c0.3875732-0.0375977,0.7982788-0.0694122,1.2263794-0.0983429c0.4280396-0.0289154,0.8532257-0.0549545,1.2841797-0.0752029
		c0.4280548-0.0173492,0.8387604-0.0260239,1.2408142-0.0260239c1.0440979,0,2.0361786,0.1041183,2.9790802,0.3123779
		c0.9400024,0.2111282,1.7701111,0.57267,2.4816284,1.0846176c0.714386,0.5148239,1.2783508,1.1916351,1.6977539,2.0419693
		c0.4164886,0.8445587,0.6276703,1.906044,0.6276703,3.1786728c0,1.3304596-0.2227478,2.4382172-0.671051,3.3232651
		c-0.4483032,0.882164-1.0354614,1.5936661-1.7671814,2.1229706c-0.731781,0.5321808-1.5676575,0.9110718-2.4960938,1.1308899
		c-0.9313049,0.2169266-1.8829041,0.3239441-2.8518066,0.3239441c-0.3644562,0-0.6826172-0.0028915-0.9573822-0.0115662
		c-0.2776489-0.0115738-0.5755463-0.0347137-0.8994904-0.0723114v7.4187927
		c-0.4570007,0.0549622-0.940033,0.0838776-1.4519806,0.0838776c-0.2313385,0-0.4714355-0.0057831-0.7288666-0.0144501
		c-0.2573853-0.0086823-0.5003357-0.0318146-0.7288513-0.0694275V108.5862427z M154.2639465,119.1692276
		c0.3065643,0.0405045,0.5726776,0.0665359,0.8011627,0.0867767c0.2284698,0.0173569,0.558197,0.028923,0.9978485,0.028923
		c0.5900269,0,1.1743011-0.0607376,1.7527618-0.1879959c0.5813141-0.1214828,1.0990448-0.3441849,1.5560455-0.668129
		c0.4540863-0.3239365,0.8214111-0.7664719,1.0990906-1.3275681c0.2747803-0.5611115,0.4135742-1.2870941,0.4135742-2.1808167
		c0-0.778038-0.1214447-1.4345856-0.3557587-1.9696732c-0.240036-0.5292892-0.5668945-0.9602509-0.9862366-1.2812958
		c-0.4164886-0.3239365-0.9226532-0.5524292-1.5127258-0.6883698c-0.5900116-0.1301575-1.2263184-0.1995697-1.9088898-0.1995697
		c-0.7057343,0-1.3217926,0.0318069-1.8568726,0.089653V119.1692276z"/>
	<path class="st3" d="M76.7039566,19.8359756C55.0429764-0.7665114,12.9816399-0.3096435,2.8586948,0.1269232V0.1221568
		l-0.130811,0.0107685C2.5033336,0.1428112,2.2752526,0.1528736,2.0849497,0.1624064
		c-0.085795,0.0045899-0.1285161,0.0060021-0.1647054,0.0068848c-0.0003531,0-0.0063553-0.0003531-0.0067083-0.0003531
		c-0.0015888,0-0.002648,0.0008827-0.0042368,0.0008827c-0.0003531,0-0.0012357,0-0.0015888,0
		c-0.0017654,0-0.007944-0.0008827-0.0095328-0.0008827L1.8969419,0.1701738H1.8907633l0,0H1.8904102L1.8898805,0.1707034
		c-0.0015887,0-0.0088266,0.0003531-0.0102389,0.0003531c0.0014123,0,0.0070614,0.0012357,0.0086502,0.0012357L1.8877622,0.1728218
		C1.7405335,0.1804127,1.6360258,0.1987722,1.5576451,0.2289594L0.9208897,0.2812132v0.8533615
		c0,0.0008827-0.0005296,0.0038837-0.0005296,0.0047665h0.0005296v0.0010592L0.9205366,1.1407535h0.0003531v101.2080841H0.9205366
		v0.0015869H0.9203601c0,0.0001755,0.0001765,0.0015869,0.0001765,0.00177l0.0003531,0.0354767v0.8427734h0.0008827v0.088623
		h0.002648h0.0049429v0.0015869h0.9688143c0.0019419,0,0.0082971-0.0010605,0.0104154-0.0010605
		c0.0017654,0,0.0031776,0.0010605,0.004943,0.0010605c0.0033541,0,0.0130634-0.000885,0.0165941-0.000885
		c0.036719,0.0019455,0.074144,0.0044174,0.1548196,0.0088272c1.4143841,0.0693741,3.7947581,0.1560516,6.8867378,0.1560516
		c15.5200939,0,48.9235344-2.2124863,67.5356064-19.9164734c8.6914368-8.2691727,13.0992966-18.9677887,13.0992966-31.7952232
		c0-0.1069794,0.0029984-0.2083092,0.0058289-0.3152885c0-0.1156273,0.0028229-0.2342606,0.0028229-0.3557129
		C89.615242,38.5029526,85.2711105,27.9865131,76.7039566,19.8359756z M20.7919979,27.3146286
		c-1.7903996-5.7500401-4.2805767-11.0082588-7.4071569-15.6330767c-1.9969435-2.9511061-3.9742918-5.2153206-5.6255836-6.8918567
		c2.87502,1.5810313,6.4621754,3.9555802,10.0706911,7.4009786c10.1375961,9.6805515,15.2888374,22.713295,15.3061371,38.7310371
		c0,0.0665512,0,0.1301041,0,0.1966553c-0.0028267,0.066555-0.0028267,0.1359329-0.0028267,0.2024841
		c0,16.1536751-5.1454124,29.4323235-15.2888355,39.4627647c-3.631465,3.5917511-7.2814655,6.1009903-10.1969118,7.7814102
		c1.6768894-1.7766266,3.7147884-4.2076721,5.7661047-7.3533173c3.1237564-4.8011703,5.6169338-10.2127991,7.4015083-16.0812912
		c2.2213173-7.3060074,3.3493652-15.3465614,3.3493652-23.8934174v-0.3500671
		C24.1528378,42.3979797,23.0191422,34.4672241,20.7919979,27.3146286z M18.8075886,92.5537186
		c4.7289715-4.5785675,8.4947796-9.9495926,11.1960907-15.9626694c3.3638401-7.4881821,5.0673847-15.9916115,5.0673847-25.2701988
		c0-0.0607262,0-0.1244545,0-0.1851807c0-0.0722046,0.0030022-0.1415825,0.0030022-0.2167854
		c-0.0116501-9.2063828-1.7238464-17.5998306-5.0905113-24.9434376
		c-2.7043133-5.8974457-6.4731216-11.1325378-11.2020931-15.5520468c-2.4640503-2.3026991-4.8869686-4.0773878-7.0643301-5.4861231
		c3.518837,1.3598356,7.6322374,3.3170595,11.760644,6.1068134c13.6315422,9.2120342,20.5528793,22.6410942,20.5673561,39.9139862
		c0,0.0695534-0.0028267,0.1417542-0.0028267,0.211132c0,0.081028-0.0029984,0.1592331-0.0029984,0.2372627
		c0,17.4263-6.9126892,31.0924454-20.5470562,40.6081161c-4.1455288,2.8944321-8.4086294,4.9874115-12.0605726,6.4563446
		C13.6863604,96.9668732,16.2247314,95.0536041,18.8075886,92.5537186z M22.2265072,50.8899345v0.347065
		c0,27.3483505-11.5830498,41.8796844-17.4566631,47.483902c0.8846078-2.0121231,2.0613785-4.9727631,3.2612748-8.9165115
		c2.3831987-7.8469009,5.2264423-20.9260712,5.2264423-38.6501846s-2.8460684-30.4821701-5.2322683-38.0686836
		C6.8541713,9.3604937,5.6996441,6.5716214,4.8219209,4.6560597C10.6879435,9.9924822,22.1897888,23.906477,22.2265072,50.8899345z
		 M24.2645836,93.8367615c6.3080616-4.3354797,11.335022-9.6516037,14.941597-15.8007812
		c4.4947128-7.6587219,6.7709312-16.6163673,6.7709312-26.629509c0-0.0693779,0.0029984-0.141758,0.0029984-0.2111359
		c0-0.0780258,0-0.1590538,0-0.2400856c-0.005825-9.9264603-2.2906914-18.7769547-6.7882309-26.2999172
		c-3.6097488-6.0390263-8.6393585-11.2308683-14.9475975-15.4304171c-2.5975094-1.7291427-5.1831913-3.1249909-7.59128-4.2618647
		c3.8411846,1.134932,8.1088753,2.7083726,12.3963394,4.8894405c17.1773891,8.7376881,25.8919506,22.5803661,25.9036007,41.1375351
		c0,0.0808525-0.0030022,0.1590576-0.0030022,0.2400856c0,0.0866776-0.0028229,0.1763573-0.0028229,0.2630348
		c0,18.7423553-8.7087364,32.8048172-25.880476,41.7970657c-4.3873806,2.298111-8.7849998,3.9490433-12.7340469,5.1427612
		C18.8850861,97.1947784,21.58428,95.6797638,24.2645836,93.8367615z M2.8586948,5.0068312
		c2.9175646,6.1763678,8.4608841,21.1859283,8.4608841,46.1473732c0,17.2151642-2.7187881,29.9470978-4.9950075,37.5973358
		c-1.2440295,4.1746597-2.4951205,7.3277206-3.4658768,9.5018997V5.0068312z M22.202322,98.4822311
		c2.4688187-0.9396896,5.0532646-2.0631409,7.6394768-3.4104462c7.8525486-4.0925674,14.111536-9.3451385,18.6034222-15.6156006
		c5.5994568-7.8179474,8.4397011-17.2266388,8.4397011-27.9630356c0-0.0780296,0-0.1560555,0.0030022-0.2312584
		c0-0.0926819,0.0028229-0.1821823,0.0028229-0.271862c-0.005825-10.6322441-2.8488922-19.9253044-8.4513512-27.6187992
		C43.9505081,17.2047462,37.6915245,12.0593328,29.838974,8.0795679c-2.4596386-1.2465005-4.911684-2.2898121-7.2894096-3.1784801
		c9.3419609,2.2326155,21.7965546,6.6673069,30.8498878,15.4198236
		c8.2661667,7.9886589,12.4572449,18.3200874,12.4630661,30.7077789c0,0.086853-0.0029984,0.1735306-0.0029984,0.2632103
		c-0.0058289,0.0955048-0.0058289,0.1938324-0.0058289,0.29216c0,25.3222809-17.3219681,37.5018387-31.8559494,43.2661743
		C30.3200264,96.3184662,26.3273754,97.4876404,22.202322,98.4822311z M34.7149963,96.6492844
		c15.0893555-5.9812927,33.0766754-18.6555023,33.0766754-45.0652237c0-0.0838509,0.0028305-0.1707039,0.0028305-0.2573853
		c0.0029984-0.1013298,0.0058212-0.1996574,0.0058212-0.3008118C67.7945023,41.631649,65.45755,33.3045769,60.853035,26.2734356
		c-3.8902626-5.9350471-9.4376411-11.0082588-16.4862595-15.0718775c-5.135704-2.9613447-10.6001129-5.0975733-15.7291107-6.6577735
		c11.3316689,2.2393236,25.7111816,6.8247743,35.6909561,16.3125515
		c8.2546921,7.8497257,12.4399414,18.0132732,12.4399414,30.2073078c0,0.0955009,0,0.1910057-0.0029984,0.2893372
		c-0.0028229,0.1069794-0.0028229,0.2169571-0.0056458,0.3239365c0,12.4397659-4.2576294,22.800148-12.659729,30.7916336
		C53.9474106,92.1217422,39.347229,96.7349091,28.0024986,98.9661102
		C30.3094349,98.26474,32.5665894,97.5068817,34.7149963,96.6492844z M87.674614,51.4172401
		c-0.0058289,0.118454-0.0058289,0.2370834-0.0058289,0.3557129c0,12.2778893-4.2053757,22.5021629-12.4976654,30.3924904
		C64.3545761,92.4539719,48.3112335,97.3651276,33.885643,99.6538849c3.7891121-0.9388046,7.6574821-2.1003952,11.4578896-3.5740967
		c9.8309593-3.8120575,17.6227837-9.0009003,23.1586876-15.4275894
		c6.7651062-7.8555527,10.1955032-17.6026573,10.1955032-28.9752808c0-0.0955048,0.0028229-0.1910095,0.0058212-0.286335
		c0.0028229-0.1069794,0.0028229-0.2169609,0.0028229-0.3269386c0-11.1902657-3.3956146-20.7869644-10.0883408-28.5182381
		c-5.4838295-6.3341885-13.2034492-11.4506502-22.9505539-15.2078075c-3.5689735-1.376606-7.2071457-2.4792328-10.7879448-3.3816705
		c14.2531128,2.3328867,29.9158516,7.2265644,40.4910698,17.2856026c8.1650162,7.7688751,12.306839,17.8137932,12.306839,29.8604202
		C87.6774368,51.208931,87.674614,51.3130836,87.674614,51.4172401z"/>
</g>
</svg>
