<?xml version="1.0" encoding="UTF-8"?>
<svg id="Layer_1" data-name="Layer 1" xmlns="http://www.w3.org/2000/svg" viewBox="0 0 96 96">
  <defs>
    <style>
      .cls-1 {
        stroke: #00a44f;
      }

      .cls-1, .cls-2, .cls-3 {
        fill: none;
        stroke-miterlimit: 2.61;
        stroke-width: .61px;
      }

      .cls-4 {
        fill: #00a44f;
      }

      .cls-4, .cls-5, .cls-6, .cls-7 {
        fill-rule: evenodd;
      }

      .cls-2 {
        stroke: #f05a24;
      }

      .cls-5 {
        fill: #fff;
      }

      .cls-6 {
        fill: #f05a24;
      }

      .cls-3 {
        stroke: #28aae1;
      }

      .cls-7 {
        fill: #28aae1;
      }
    </style>
  </defs>
  <polygon class="cls-4" points="88.78 66.46 57.49 1.75 47.92 8.36 88.78 66.46"/>
  <polygon class="cls-1" points="88.78 66.46 57.49 1.75 47.92 8.36 88.78 66.46"/>
  <polygon class="cls-6" points="19.27 91.78 94.33 94.25 93.92 81.81 19.27 91.78"/>
  <polygon class="cls-2" points="19.27 91.78 94.33 94.25 93.92 81.81 19.27 91.78"/>
  <polygon class="cls-7" points="40.87 21.76 1.67 82.35 11.2 89.03 40.87 21.76"/>
  <polygon class="cls-3" points="40.87 21.76 1.67 82.35 11.2 89.03 40.87 21.76"/>
  <path class="cls-5" d="M44.74,46.21h3.2c.92,0,1.67.84,1.67,1.86v3.57c0,1.02-.76,1.86-1.67,1.86h-3.2c-.92,0-1.67-.84-1.67-1.86v-3.57c0-1.02.75-1.86,1.67-1.86M36.92,40.41h13.98c2.39,0,4.34,2.17,4.34,4.82v9.64c0,2.65-1.95,4.82-4.34,4.82h-7.73v20.43h-6.24v-39.71Z"/>
  <path class="cls-5" d="M55.43,74.31h-3.2c-.92,0-1.67-.84-1.67-1.86v-3.57c0-1.02.75-1.86,1.67-1.86h3.2c.92,0,1.67.84,1.67,1.86v3.57c0,1.02-.75,1.86-1.67,1.86M63.25,80.12h-13.98c-2.39,0-4.34-2.17-4.34-4.82v-9.64c0-2.65,1.95-4.82,4.34-4.82h5.78c1.24.02,2.01-.91,1.96-2.22v-18.21h6.24v21.07h8.31c1.97,0,3.57,1.79,3.57,3.97v14.65h-5.56v-12.22c0-.34-.25-.62-.56-.62h-5.69s-.05,0-.07,0v12.86Z"/>
</svg>