<?xml version="1.0" encoding="UTF-8"?>
<svg id="Layer_1" data-name="Layer 1" xmlns="http://www.w3.org/2000/svg" viewBox="0 0 200 200">
  <defs>
    <style>
      .cls-1 {
        letter-spacing: -.19em;
      }

      .cls-2 {
        letter-spacing: .06em;
      }

      .cls-3 {
        stroke: #00a44f;
      }

      .cls-3, .cls-4, .cls-5 {
        fill: none;
        stroke-miterlimit: 2.61;
        stroke-width: .61px;
      }

      .cls-6 {
        fill: #00a44f;
      }

      .cls-6, .cls-7, .cls-8, .cls-9 {
        fill-rule: evenodd;
      }

      .cls-10 {
        letter-spacing: -.02em;
      }

      .cls-4 {
        stroke: #f05a24;
      }

      .cls-7, .cls-11 {
        fill: #fff;
      }

      .cls-8 {
        fill: #f05a24;
      }

      .cls-5 {
        stroke: #28aae1;
      }

      .cls-11 {
        font-family: ArchivoBlack-Regular, 'Archivo Black';
        font-size: 18px;
      }

      .cls-9 {
        fill: #28aae1;
      }

      .cls-12 {
        letter-spacing: .02em;
      }
    </style>
  </defs>
  <g>
    <polygon class="cls-6" points="151.79 103.01 111.27 19.06 98.89 27.64 151.79 103.01"/>
    <polygon class="cls-3" points="151.79 103.01 111.27 19.06 98.89 27.64 151.79 103.01"/>
    <polygon class="cls-8" points="61.78 135.85 158.98 139.06 158.45 122.93 61.78 135.85"/>
    <polygon class="cls-4" points="61.78 135.85 158.98 139.06 158.45 122.93 61.78 135.85"/>
    <polygon class="cls-9" points="89.75 45.03 38.98 123.62 51.32 132.28 89.75 45.03"/>
    <polygon class="cls-5" points="89.75 45.03 38.98 123.62 51.32 132.28 89.75 45.03"/>
    <path class="cls-7" d="M94.76,76.75h4.14c1.19,0,2.17,1.09,2.17,2.41v4.63c0,1.32-.98,2.41-2.17,2.41h-4.14c-1.19,0-2.17-1.09-2.17-2.41v-4.63c0-1.33.98-2.41,2.17-2.41M84.64,69.21h18.1c3.09,0,5.62,2.81,5.62,6.25v12.51c0,3.44-2.53,6.25-5.62,6.25h-10.01v26.5h-8.08v-51.52Z"/>
    <path class="cls-7" d="M108.61,113.2h-4.15c-1.19,0-2.17-1.09-2.17-2.41v-4.63c0-1.32.98-2.41,2.17-2.41h4.15c1.19,0,2.17,1.09,2.17,2.41v4.63c0,1.33-.98,2.41-2.17,2.41M118.73,120.73h-18.1c-3.09,0-5.62-2.81-5.62-6.25v-12.51c0-3.44,2.53-6.25,5.62-6.25h7.48c1.6.03,2.61-1.18,2.53-2.88v-23.62h8.08v27.34h10.76c2.55,0,4.62,2.32,4.62,5.15v19.01h-7.19v-15.86c0-.44-.33-.8-.72-.8h-7.37s-.06,0-.09,0v16.68Z"/>
  </g>
  <text class="cls-11" transform="translate(12.66 160.88)"><tspan class="cls-1" x="0" y="0">P</tspan><tspan x="9.61" y="0">.</tspan><tspan class="cls-10" x="15.61" y="0">D</tspan><tspan x="29.3" y="0">.H.</tspan><tspan class="cls-2" x="56.28" y="0"> </tspan><tspan x="63.34" y="0">Healthca</tspan><tspan class="cls-12" x="152.35" y="0">r</tspan><tspan x="160.63" y="0">e</tspan></text>
  <text class="cls-11" transform="translate(44.06 178.15)"><tspan x="0" y="0">Since 1948</tspan></text>
</svg>